<svg xmlns="http://www.w3.org/2000/svg" viewBox="0 0 419.5 86.62"><title>DataStax-whitelogo</title><g style="isolation:isolate"><g id="3fd8aed4-ee81-490a-863c-c778de24b095" data-name="Layer 1"><path d="M366.38,62l13-13.05a2.18,2.18,0,0,0-3.13-3l-12.87,13-13.1-13.17a2.14,2.14,0,0,0-1.53-.65,2.19,2.19,0,0,0-2,1.35,2.15,2.15,0,0,0,.48,2.36L360.28,62l-12.88,13a2.16,2.16,0,0,0-.49,2.37,2.19,2.19,0,0,0,2,1.35,2.15,2.15,0,0,0,1.53-.65l12.91-13L376.41,77.1a2.14,2.14,0,0,0,1.53.65A2.19,2.19,0,0,0,379.49,74Z" transform="translate(0 0)" fill="#fff"/><path d="M348.91,79.66a3.21,3.21,0,0,1-2.92-2,3.14,3.14,0,0,1,.71-3.47L358.87,62,346.5,49.49a3.13,3.13,0,0,1-.7-3.44,3.21,3.21,0,0,1,2.92-2A3.14,3.14,0,0,1,351,45l12.39,12.46L375.51,45.2a3.18,3.18,0,0,1,4.58,4.4L367.82,62,380.17,73.3a3.23,3.23,0,0,1,.68,3.54,3.19,3.19,0,0,1-2.91,1.92,3.13,3.13,0,0,1-2.24-.95l-12.32-11.4L351.15,78.72a3.14,3.14,0,0,1-2.24.94m-0.19-33.58a1.19,1.19,0,0,0-1.07.74,1.14,1.14,0,0,0,.27,1.27L361.69,62,348.12,75.65a1.16,1.16,0,0,0-.27,1.29,1.19,1.19,0,0,0,1.89.37l13.59-13.67,13.77,12.74A1.16,1.16,0,0,0,379,76a1.21,1.21,0,0,0-.27-1.32L364.93,62l13.71-13.79a1.16,1.16,0,0,0,.18-1.25,1.19,1.19,0,0,0-1.9-.36l-13.57,13.7L349.54,46.43a1.15,1.15,0,0,0-.82-0.35" transform="translate(0 0)" fill="#fff"/><path d="M402.61,53.26a8.45,8.45,0,1,0,8.24-8.65,8.45,8.45,0,0,0-8.24,8.65" transform="translate(0 0)" fill="#fff"/><path d="M368.09,12.67A8.45,8.45,0,1,0,376.33,4a8.45,8.45,0,0,0-8.24,8.65" transform="translate(0 0)" fill="#fff"/><path d="M347.66,6.7A6.54,6.54,0,1,0,354,0a6.55,6.55,0,0,0-6.39,6.69" transform="translate(0 0)" fill="#fff"/><path d="M402.48,74.77a6,6,0,1,0,5.84-6.13,6,6,0,0,0-5.84,6.13" transform="translate(0 0)" fill="#fff"/><path d="M389.27,83.18a3.53,3.53,0,1,0,3.44-3.62,3.53,3.53,0,0,0-3.44,3.62" transform="translate(0 0)" fill="#fff"/><path d="M336.27,16.55a3.89,3.89,0,1,0,3.79-4,3.88,3.88,0,0,0-3.79,4" transform="translate(0 0)" fill="#fff"/><path d="M335.82,31.86a3,3,0,1,0,3-3.11,3,3,0,0,0-3,3.11" transform="translate(0 0)" fill="#fff"/><path d="M387.17,30.11a10.56,10.56,0,1,0,10.3-10.81,10.57,10.57,0,0,0-10.3,10.81" transform="translate(0 0)" fill="#fff"/><g style="mix-blend-mode:darken"><path d="M402.48,74.77a6,6,0,1,0,5.84-6.13,6,6,0,0,0-5.84,6.13" transform="translate(0 0)" fill="#fff"/><path d="M389.27,83.18a3.53,3.53,0,1,0,3.44-3.62,3.53,3.53,0,0,0-3.44,3.62" transform="translate(0 0)" fill="#fff"/><path d="M336.27,16.55a3.89,3.89,0,1,0,3.79-4,3.88,3.88,0,0,0-3.79,4" transform="translate(0 0)" fill="#fff"/><path d="M335.82,31.86a3,3,0,1,0,3-3.11,3,3,0,0,0-3,3.11" transform="translate(0 0)" fill="#fff"/></g><path d="M26.61,45.17H3.74A2.74,2.74,0,0,0,1,48V75.83a2.74,2.74,0,0,0,2.75,2.79H26.66a8,8,0,0,0,7.75-7.71v-18a8.19,8.19,0,0,0-7.8-7.75m0,29.08-11.48,0h-1l-8.83,0V49.5H26.61A3.73,3.73,0,0,1,30,53V70.91a3.58,3.58,0,0,1-3.38,3.34" transform="translate(0 0)" fill="#fff"/><path d="M26.66,79.62H3.75A3.73,3.73,0,0,1,0,75.83V48a3.73,3.73,0,0,1,3.74-3.79H26.61a9.24,9.24,0,0,1,8.8,8.75v18a9.07,9.07,0,0,1-8.75,8.71M3.75,46.17A1.73,1.73,0,0,0,2,48V75.83a1.73,1.73,0,0,0,1.74,1.79H26.66a7,7,0,0,0,6.75-6.71v-18a7.23,7.23,0,0,0-6.8-6.75H3.75ZM4.33,75.29V48.5H26.61A4.75,4.75,0,0,1,31,53V70.91a4.59,4.59,0,0,1-4.38,4.34l-11.48,0h-1l-8.83,0h-1Zm2-24.79V73.29l7.83,0h1l11.48,0A2.59,2.59,0,0,0,29,70.91V53a2.73,2.73,0,0,0-2.42-2.47H6.33Z" transform="translate(0 0)" fill="#fff"/><path d="M78.38,45.17H61.3A8.05,8.05,0,0,0,53,53V76.65a2.12,2.12,0,0,0,2.14,2.14,2.17,2.17,0,0,0,2.19-2.14V65.08h25V76.65a2.17,2.17,0,0,0,4.33,0V53c0-4.81-4.29-7.8-8.27-7.8M82.32,53v7.91h-25V53c0-2.14,2.07-3.46,4-3.46h17c1.91,0,4,1.33,4,3.46" transform="translate(0 0)" fill="#fff"/><path d="M84.51,79.8a3.17,3.17,0,0,1-3.19-3.14V66.08h-23V76.65a3.17,3.17,0,0,1-3.19,3.14A3.11,3.11,0,0,1,52,76.65V53a9.05,9.05,0,0,1,9.27-8.8H78.38c4.46,0,9.27,3.36,9.27,8.8V76.65a3.15,3.15,0,0,1-3.14,3.14M56.35,64.08h27V76.65a1.17,1.17,0,0,0,1.19,1.14,1.15,1.15,0,0,0,1.14-1.14V53c0-4.2-3.77-6.8-7.27-6.8H61.3A7.05,7.05,0,0,0,54,53V76.65a1.12,1.12,0,0,0,1.14,1.14,1.17,1.17,0,0,0,1.19-1.14V64.08Zm27-2.2h-27V53c0-2.76,2.59-4.47,5-4.47h17c2.4,0,5,1.71,5,4.47v8.91Zm-25-2h23V53c0-1.52-1.55-2.47-3-2.47h-17c-1.43,0-3,.94-3,2.47v6.91Z" transform="translate(0 0)" fill="#fff"/><path d="M129,45.17H104.37a2.17,2.17,0,1,0,0,4.33h10.15c0,3.39,0,8.08,0,12.76v3.47c0,4.25,0,8.23,0,10.92a2.19,2.19,0,0,0,4.37,0V49.5H129a2.17,2.17,0,1,0,0-4.33" transform="translate(0 0)" fill="#fff"/><path d="M116.67,79.8a3.13,3.13,0,0,1-3.19-3.14c0-2.69,0-6.66,0-10.92V59.44c0-3.26,0-6.39,0-8.94h-9.15a3.17,3.17,0,1,1,0-6.33H129a3.17,3.17,0,1,1,0,6.33h-9.11V76.65a3.13,3.13,0,0,1-3.19,3.14m-12.3-33.63a1.17,1.17,0,1,0,0,2.33h11.15v1c0,2.71,0,6.24,0,9.94v6.29c0,4.26,0,8.23,0,10.92a1.19,1.19,0,0,0,2.37,0V48.5H129a1.17,1.17,0,1,0,0-2.33H104.37Z" transform="translate(0 0)" fill="#fff"/><path d="M173,45.17H156a8.06,8.06,0,0,0-8.27,7.8V76.65a2.12,2.12,0,0,0,2.14,2.14A2.17,2.17,0,0,0,152,76.65V65.08h25V76.65a2.17,2.17,0,0,0,4.33,0V53c0-4.81-4.29-7.8-8.27-7.8M177,53v7.91H152V53c0-2.14,2.07-3.46,4-3.46h17c1.92,0,4,1.33,4,3.46" transform="translate(0 0)" fill="#fff"/><path d="M179.17,79.8A3.17,3.17,0,0,1,176,76.65V66.08H153V76.65a3.17,3.17,0,0,1-3.19,3.14,3.11,3.11,0,0,1-3.14-3.14V53a9.05,9.05,0,0,1,9.27-8.8H173c4.46,0,9.27,3.36,9.27,8.8V76.65a3.15,3.15,0,0,1-3.15,3.14M151,64.08h27V76.65a1.17,1.17,0,0,0,1.18,1.14,1.15,1.15,0,0,0,1.15-1.14V53c0-4.2-3.77-6.8-7.27-6.8H156a7.05,7.05,0,0,0-7.27,6.8V76.65a1.12,1.12,0,0,0,1.14,1.14A1.17,1.17,0,0,0,151,76.65V64.08Zm27-2.2H151V53c0-2.76,2.58-4.47,5-4.47h17c2.4,0,5,1.71,5,4.47v8.91Zm-25-2h23V53c0-1.52-1.55-2.47-3-2.47H156c-1.43,0-3,.94-3,2.47v6.91Z" transform="translate(0 0)" fill="#fff"/><path d="M226.24,59.8H207.52c-2.31,0-3.37-2.71-3.37-5.22s1-5.08,3.28-5.08h20.62a2.17,2.17,0,1,0,0-4.33H207.43c-5,0-7.61,4.75-7.61,9.45s2.42,9.51,7.74,9.51H226c2.36,0,3.43,2.71,3.42,5.21s-1,5-3.28,5H202.43a2.16,2.16,0,0,0,0,4.33h23.68c5.28,0,7.68-4.89,7.68-9.44s-2.59-9.38-7.55-9.38" transform="translate(0 0)" fill="#fff"/><path d="M226.11,79.62H202.43a3.16,3.16,0,0,1,0-6.33h23.73c1.66,0,2.27-2.37,2.28-4s-0.63-4.19-2.42-4.2H207.56c-6,0-8.74-5.45-8.74-10.51s3-10.45,8.61-10.45h20.62a3.17,3.17,0,1,1,0,6.33H207.43c-1.67,0-2.28,2.44-2.28,4.08s0.63,4.22,2.37,4.22h18.72c5.61,0,8.55,5.22,8.55,10.38s-2.71,10.44-8.68,10.44m-23.68-4.33a1.16,1.16,0,0,0,0,2.33h23.68c4.59,0,6.68-4.38,6.68-8.44s-2.25-8.38-6.55-8.38H207.52c-3,0-4.37-3.22-4.37-6.22s1.34-6.08,4.28-6.08h20.62a1.17,1.17,0,1,0,0-2.33H207.43c-4.34,0-6.61,4.25-6.61,8.45s2.11,8.51,6.74,8.51H226c3.05,0,4.43,3.24,4.42,6.21s-1.35,6-4.28,6H202.43Z" transform="translate(0 0)" fill="#fff"/><path d="M276.06,45.17H249.31a2.17,2.17,0,1,0,0,4.33h12.31c0,3.39,0,8.08,0,12.76,0,5.49,0,11,0,14.39a2.19,2.19,0,0,0,4.37,0V49.5h10.11a2.17,2.17,0,1,0,0-4.33" transform="translate(0 0)" fill="#fff"/><path d="M263.76,79.8a3.13,3.13,0,0,1-3.19-3.14c0-3.41,0-8.9,0-14.39l0-11.76H249.31a3.17,3.17,0,1,1,0-6.33h26.75a3.17,3.17,0,1,1,0,6.33h-9.11V76.65a3.13,3.13,0,0,1-3.18,3.14M249.31,46.17a1.17,1.17,0,1,0,0,2.33h13.31l0,13.76c0,5.49,0,11,0,14.39a1.19,1.19,0,0,0,2.37,0V48.5h11.11a1.17,1.17,0,1,0,0-2.33H249.31Z" transform="translate(0 0)" fill="#fff"/><path d="M320.13,45.17H303a8.06,8.06,0,0,0-8.27,7.8V76.65a2.12,2.12,0,0,0,2.14,2.14,2.17,2.17,0,0,0,2.19-2.14V65.08h25V76.65a2.17,2.17,0,0,0,4.33,0V53c0-4.81-4.29-7.8-8.27-7.8m3.94,7.8v7.91h-25V53c0-2.14,2.07-3.46,4-3.46h17c1.92,0,4,1.33,4,3.46" transform="translate(0 0)" fill="#fff"/><path d="M326.25,79.8a3.17,3.17,0,0,1-3.19-3.14V66.08h-23V76.65a3.17,3.17,0,0,1-3.19,3.14,3.11,3.11,0,0,1-3.14-3.14V53a9.05,9.05,0,0,1,9.27-8.8h17.08c4.46,0,9.27,3.36,9.27,8.8V76.65a3.15,3.15,0,0,1-3.14,3.14M298.1,64.08h27V76.65a1.17,1.17,0,0,0,1.19,1.14,1.14,1.14,0,0,0,1.14-1.14V53c0-4.2-3.77-6.8-7.27-6.8H303a7.05,7.05,0,0,0-7.27,6.8V76.65a1.12,1.12,0,0,0,1.14,1.14,1.17,1.17,0,0,0,1.19-1.14V64.08Zm27-2.2h-27V53c0-2.76,2.59-4.47,5-4.47h17c2.4,0,5,1.71,5,4.47v8.91Zm-25-2h23V53c0-1.52-1.55-2.47-3-2.47h-17c-1.43,0-3,.94-3,2.47v6.91Z" transform="translate(0 0)" fill="#fff"/></g></g></svg>